<mxfile host="app.diagrams.net" modified="2022-06-26T21:56:42.185Z" agent="5.0 (Windows NT 10.0; Win64; x64) AppleWebKit/537.36 (KHTML, like Gecko) Chrome/102.0.0.0 Safari/537.36" etag="3sTgWWs0XiwRLCcNyBHC" version="20.0.3" type="github" pages="2">
  <diagram id="C5RBs43oDa-KdzZeNtuy" name="Models">
    <mxGraphModel dx="1140" dy="571" grid="1" gridSize="10" guides="1" tooltips="1" connect="1" arrows="1" fold="1" page="1" pageScale="1" pageWidth="827" pageHeight="1169" background="#EEEEEE" math="0" shadow="0">
      <root>
        <mxCell id="WIyWlLk6GJQsqaUBKTNV-0" />
        <mxCell id="WIyWlLk6GJQsqaUBKTNV-1" parent="WIyWlLk6GJQsqaUBKTNV-0" />
        <mxCell id="zkfFHV4jXpPFQw0GAbJ--0" value="Mídia" style="swimlane;fontStyle=2;align=center;verticalAlign=top;childLayout=stackLayout;horizontal=1;startSize=26;horizontalStack=0;resizeParent=1;resizeLast=0;collapsible=1;marginBottom=0;rounded=0;shadow=0;strokeWidth=1;fillColor=#F5AB50;strokeColor=#909090;fontColor=#1A1A1A;" parent="WIyWlLk6GJQsqaUBKTNV-1" vertex="1">
          <mxGeometry x="290" y="10" width="160" height="194" as="geometry">
            <mxRectangle x="230" y="140" width="160" height="26" as="alternateBounds" />
          </mxGeometry>
        </mxCell>
        <mxCell id="zkfFHV4jXpPFQw0GAbJ--1" value="-titulo: String" style="text;align=left;verticalAlign=top;spacingLeft=4;spacingRight=4;overflow=hidden;rotatable=0;points=[[0,0.5],[1,0.5]];portConstraint=eastwest;fontColor=#1A1A1A;rounded=0;" parent="zkfFHV4jXpPFQw0GAbJ--0" vertex="1">
          <mxGeometry y="26" width="160" height="26" as="geometry" />
        </mxCell>
        <mxCell id="zkfFHV4jXpPFQw0GAbJ--2" value="-autor: String" style="text;align=left;verticalAlign=top;spacingLeft=4;spacingRight=4;overflow=hidden;rotatable=0;points=[[0,0.5],[1,0.5]];portConstraint=eastwest;rounded=0;shadow=0;html=0;fontColor=#1A1A1A;" parent="zkfFHV4jXpPFQw0GAbJ--0" vertex="1">
          <mxGeometry y="52" width="160" height="26" as="geometry" />
        </mxCell>
        <mxCell id="8SmD6S5KUyV5Y7Mvpjyc-0" value="-duracao: double" style="text;align=left;verticalAlign=top;spacingLeft=4;spacingRight=4;overflow=hidden;rotatable=0;points=[[0,0.5],[1,0.5]];portConstraint=eastwest;rounded=0;shadow=0;html=0;fontColor=#1A1A1A;" vertex="1" parent="zkfFHV4jXpPFQw0GAbJ--0">
          <mxGeometry y="78" width="160" height="26" as="geometry" />
        </mxCell>
        <mxCell id="zkfFHV4jXpPFQw0GAbJ--3" value="-genero: String" style="text;align=left;verticalAlign=top;spacingLeft=4;spacingRight=4;overflow=hidden;rotatable=0;points=[[0,0.5],[1,0.5]];portConstraint=eastwest;rounded=0;shadow=0;html=0;fontColor=#1A1A1A;" parent="zkfFHV4jXpPFQw0GAbJ--0" vertex="1">
          <mxGeometry y="104" width="160" height="26" as="geometry" />
        </mxCell>
        <mxCell id="8SmD6S5KUyV5Y7Mvpjyc-1" value="-data: Date" style="text;align=left;verticalAlign=top;spacingLeft=4;spacingRight=4;overflow=hidden;rotatable=0;points=[[0,0.5],[1,0.5]];portConstraint=eastwest;rounded=0;shadow=0;html=0;fontColor=#1A1A1A;" vertex="1" parent="zkfFHV4jXpPFQw0GAbJ--0">
          <mxGeometry y="130" width="160" height="26" as="geometry" />
        </mxCell>
        <mxCell id="zkfFHV4jXpPFQw0GAbJ--4" value="" style="line;html=1;strokeWidth=1;align=left;verticalAlign=middle;spacingTop=-1;spacingLeft=3;spacingRight=3;rotatable=0;labelPosition=right;points=[];portConstraint=eastwest;labelBackgroundColor=#EEEEEE;fillColor=#F5AB50;strokeColor=#909090;fontColor=#1A1A1A;rounded=0;" parent="zkfFHV4jXpPFQw0GAbJ--0" vertex="1">
          <mxGeometry y="156" width="160" height="8" as="geometry" />
        </mxCell>
        <mxCell id="8SmD6S5KUyV5Y7Mvpjyc-5" value="+toString(): String" style="text;align=left;verticalAlign=top;spacingLeft=4;spacingRight=4;overflow=hidden;rotatable=0;points=[[0,0.5],[1,0.5]];portConstraint=eastwest;rounded=0;shadow=0;html=0;fontColor=#1A1A1A;" vertex="1" parent="zkfFHV4jXpPFQw0GAbJ--0">
          <mxGeometry y="164" width="160" height="30" as="geometry" />
        </mxCell>
        <mxCell id="zkfFHV4jXpPFQw0GAbJ--6" value="Música" style="swimlane;fontStyle=0;align=center;verticalAlign=top;childLayout=stackLayout;horizontal=1;startSize=26;horizontalStack=0;resizeParent=1;resizeLast=0;collapsible=1;marginBottom=0;rounded=0;shadow=0;strokeWidth=1;fillColor=#F5AB50;strokeColor=#909090;fontColor=#1A1A1A;" parent="WIyWlLk6GJQsqaUBKTNV-1" vertex="1">
          <mxGeometry x="560" y="180" width="160" height="90" as="geometry">
            <mxRectangle x="130" y="380" width="160" height="26" as="alternateBounds" />
          </mxGeometry>
        </mxCell>
        <mxCell id="zkfFHV4jXpPFQw0GAbJ--7" value="-interprete: Artista" style="text;align=left;verticalAlign=top;spacingLeft=4;spacingRight=4;overflow=hidden;rotatable=0;points=[[0,0.5],[1,0.5]];portConstraint=eastwest;fontColor=#1A1A1A;rounded=0;" parent="zkfFHV4jXpPFQw0GAbJ--6" vertex="1">
          <mxGeometry y="26" width="160" height="26" as="geometry" />
        </mxCell>
        <mxCell id="zkfFHV4jXpPFQw0GAbJ--9" value="" style="line;html=1;strokeWidth=1;align=left;verticalAlign=middle;spacingTop=-1;spacingLeft=3;spacingRight=3;rotatable=0;labelPosition=right;points=[];portConstraint=eastwest;labelBackgroundColor=#EEEEEE;fillColor=#F5AB50;strokeColor=#909090;fontColor=#1A1A1A;rounded=0;" parent="zkfFHV4jXpPFQw0GAbJ--6" vertex="1">
          <mxGeometry y="52" width="160" height="8" as="geometry" />
        </mxCell>
        <mxCell id="zkfFHV4jXpPFQw0GAbJ--10" value="+toString(): String" style="text;align=left;verticalAlign=top;spacingLeft=4;spacingRight=4;overflow=hidden;rotatable=0;points=[[0,0.5],[1,0.5]];portConstraint=eastwest;fontStyle=0;fontColor=#1A1A1A;rounded=0;" parent="zkfFHV4jXpPFQw0GAbJ--6" vertex="1">
          <mxGeometry y="60" width="160" height="26" as="geometry" />
        </mxCell>
        <mxCell id="zkfFHV4jXpPFQw0GAbJ--12" value="" style="endArrow=block;endSize=10;endFill=0;shadow=0;strokeWidth=1;rounded=0;edgeStyle=elbowEdgeStyle;elbow=vertical;labelBackgroundColor=#EEEEEE;strokeColor=#182E3E;fontColor=#1A1A1A;" parent="WIyWlLk6GJQsqaUBKTNV-1" source="zkfFHV4jXpPFQw0GAbJ--6" target="zkfFHV4jXpPFQw0GAbJ--0" edge="1">
          <mxGeometry width="160" relative="1" as="geometry">
            <mxPoint x="200" y="203" as="sourcePoint" />
            <mxPoint x="200" y="203" as="targetPoint" />
            <Array as="points">
              <mxPoint x="480" y="240" />
            </Array>
          </mxGeometry>
        </mxCell>
        <mxCell id="zkfFHV4jXpPFQw0GAbJ--13" value="AudioBook" style="swimlane;fontStyle=0;align=center;verticalAlign=top;childLayout=stackLayout;horizontal=1;startSize=26;horizontalStack=0;resizeParent=1;resizeLast=0;collapsible=1;marginBottom=0;rounded=0;shadow=0;strokeWidth=1;fillColor=#F5AB50;strokeColor=#909090;fontColor=#1A1A1A;" parent="WIyWlLk6GJQsqaUBKTNV-1" vertex="1">
          <mxGeometry x="30" y="162" width="160" height="126" as="geometry">
            <mxRectangle x="340" y="380" width="170" height="26" as="alternateBounds" />
          </mxGeometry>
        </mxCell>
        <mxCell id="zkfFHV4jXpPFQw0GAbJ--14" value="-narrador: String" style="text;align=left;verticalAlign=top;spacingLeft=4;spacingRight=4;overflow=hidden;rotatable=0;points=[[0,0.5],[1,0.5]];portConstraint=eastwest;fontColor=#1A1A1A;rounded=0;" parent="zkfFHV4jXpPFQw0GAbJ--13" vertex="1">
          <mxGeometry y="26" width="160" height="26" as="geometry" />
        </mxCell>
        <mxCell id="8SmD6S5KUyV5Y7Mvpjyc-4" value="-editora: String" style="text;align=left;verticalAlign=top;spacingLeft=4;spacingRight=4;overflow=hidden;rotatable=0;points=[[0,0.5],[1,0.5]];portConstraint=eastwest;fontColor=#1A1A1A;rounded=0;" vertex="1" parent="zkfFHV4jXpPFQw0GAbJ--13">
          <mxGeometry y="52" width="160" height="28" as="geometry" />
        </mxCell>
        <mxCell id="zkfFHV4jXpPFQw0GAbJ--15" value="" style="line;html=1;strokeWidth=1;align=left;verticalAlign=middle;spacingTop=-1;spacingLeft=3;spacingRight=3;rotatable=0;labelPosition=right;points=[];portConstraint=eastwest;labelBackgroundColor=#EEEEEE;fillColor=#F5AB50;strokeColor=#909090;fontColor=#1A1A1A;rounded=0;" parent="zkfFHV4jXpPFQw0GAbJ--13" vertex="1">
          <mxGeometry y="80" width="160" height="10" as="geometry" />
        </mxCell>
        <mxCell id="8SmD6S5KUyV5Y7Mvpjyc-6" value="+toString(): String" style="text;align=left;verticalAlign=top;spacingLeft=4;spacingRight=4;overflow=hidden;rotatable=0;points=[[0,0.5],[1,0.5]];portConstraint=eastwest;rounded=0;shadow=0;html=0;fontColor=#1A1A1A;" vertex="1" parent="zkfFHV4jXpPFQw0GAbJ--13">
          <mxGeometry y="90" width="160" height="36" as="geometry" />
        </mxCell>
        <mxCell id="zkfFHV4jXpPFQw0GAbJ--16" value="" style="endArrow=block;endSize=10;endFill=0;shadow=0;strokeWidth=1;rounded=0;edgeStyle=elbowEdgeStyle;elbow=vertical;labelBackgroundColor=#EEEEEE;strokeColor=#182E3E;fontColor=#1A1A1A;" parent="WIyWlLk6GJQsqaUBKTNV-1" source="zkfFHV4jXpPFQw0GAbJ--13" target="zkfFHV4jXpPFQw0GAbJ--0" edge="1">
          <mxGeometry width="160" relative="1" as="geometry">
            <mxPoint x="210" y="373" as="sourcePoint" />
            <mxPoint x="310" y="271" as="targetPoint" />
            <Array as="points">
              <mxPoint x="250" y="240" />
            </Array>
          </mxGeometry>
        </mxCell>
        <mxCell id="8SmD6S5KUyV5Y7Mvpjyc-12" value="" style="edgeStyle=orthogonalEdgeStyle;rounded=0;orthogonalLoop=1;jettySize=auto;html=1;endArrow=none;endFill=0;labelBackgroundColor=#EEEEEE;strokeColor=#182E3E;fontColor=#1A1A1A;" edge="1" parent="WIyWlLk6GJQsqaUBKTNV-1" source="8SmD6S5KUyV5Y7Mvpjyc-7">
          <mxGeometry relative="1" as="geometry">
            <mxPoint x="370" y="230" as="targetPoint" />
          </mxGeometry>
        </mxCell>
        <mxCell id="8SmD6S5KUyV5Y7Mvpjyc-7" value="Podcast" style="swimlane;fontStyle=0;align=center;verticalAlign=top;childLayout=stackLayout;horizontal=1;startSize=26;horizontalStack=0;resizeParent=1;resizeLast=0;collapsible=1;marginBottom=0;rounded=0;shadow=0;strokeWidth=1;fillColor=#F5AB50;strokeColor=#909090;fontColor=#1A1A1A;" vertex="1" parent="WIyWlLk6GJQsqaUBKTNV-1">
          <mxGeometry x="290" y="280" width="160" height="126" as="geometry">
            <mxRectangle x="340" y="380" width="170" height="26" as="alternateBounds" />
          </mxGeometry>
        </mxCell>
        <mxCell id="8SmD6S5KUyV5Y7Mvpjyc-8" value="-convidado: String" style="text;align=left;verticalAlign=top;spacingLeft=4;spacingRight=4;overflow=hidden;rotatable=0;points=[[0,0.5],[1,0.5]];portConstraint=eastwest;fontColor=#1A1A1A;rounded=0;" vertex="1" parent="8SmD6S5KUyV5Y7Mvpjyc-7">
          <mxGeometry y="26" width="160" height="26" as="geometry" />
        </mxCell>
        <mxCell id="8SmD6S5KUyV5Y7Mvpjyc-9" value="-patrocidaor: String" style="text;align=left;verticalAlign=top;spacingLeft=4;spacingRight=4;overflow=hidden;rotatable=0;points=[[0,0.5],[1,0.5]];portConstraint=eastwest;fontColor=#1A1A1A;rounded=0;" vertex="1" parent="8SmD6S5KUyV5Y7Mvpjyc-7">
          <mxGeometry y="52" width="160" height="28" as="geometry" />
        </mxCell>
        <mxCell id="8SmD6S5KUyV5Y7Mvpjyc-10" value="" style="line;html=1;strokeWidth=1;align=left;verticalAlign=middle;spacingTop=-1;spacingLeft=3;spacingRight=3;rotatable=0;labelPosition=right;points=[];portConstraint=eastwest;labelBackgroundColor=#EEEEEE;fillColor=#F5AB50;strokeColor=#909090;fontColor=#1A1A1A;rounded=0;" vertex="1" parent="8SmD6S5KUyV5Y7Mvpjyc-7">
          <mxGeometry y="80" width="160" height="10" as="geometry" />
        </mxCell>
        <mxCell id="8SmD6S5KUyV5Y7Mvpjyc-11" value="+toString(): String" style="text;align=left;verticalAlign=top;spacingLeft=4;spacingRight=4;overflow=hidden;rotatable=0;points=[[0,0.5],[1,0.5]];portConstraint=eastwest;rounded=0;shadow=0;html=0;fontColor=#1A1A1A;" vertex="1" parent="8SmD6S5KUyV5Y7Mvpjyc-7">
          <mxGeometry y="90" width="160" height="36" as="geometry" />
        </mxCell>
        <mxCell id="8SmD6S5KUyV5Y7Mvpjyc-13" value="Artista" style="swimlane;fontStyle=0;align=center;verticalAlign=top;childLayout=stackLayout;horizontal=1;startSize=26;horizontalStack=0;resizeParent=1;resizeLast=0;collapsible=1;marginBottom=0;rounded=0;shadow=0;strokeWidth=1;fillColor=#F5AB50;strokeColor=#909090;fontColor=#1A1A1A;" vertex="1" parent="WIyWlLk6GJQsqaUBKTNV-1">
          <mxGeometry x="560" y="40" width="160" height="90" as="geometry">
            <mxRectangle x="130" y="380" width="160" height="26" as="alternateBounds" />
          </mxGeometry>
        </mxCell>
        <mxCell id="8SmD6S5KUyV5Y7Mvpjyc-14" value="-nome: Artista" style="text;align=left;verticalAlign=top;spacingLeft=4;spacingRight=4;overflow=hidden;rotatable=0;points=[[0,0.5],[1,0.5]];portConstraint=eastwest;fontColor=#1A1A1A;rounded=0;" vertex="1" parent="8SmD6S5KUyV5Y7Mvpjyc-13">
          <mxGeometry y="26" width="160" height="26" as="geometry" />
        </mxCell>
        <mxCell id="8SmD6S5KUyV5Y7Mvpjyc-15" value="" style="line;html=1;strokeWidth=1;align=left;verticalAlign=middle;spacingTop=-1;spacingLeft=3;spacingRight=3;rotatable=0;labelPosition=right;points=[];portConstraint=eastwest;labelBackgroundColor=#EEEEEE;fillColor=#F5AB50;strokeColor=#909090;fontColor=#1A1A1A;rounded=0;" vertex="1" parent="8SmD6S5KUyV5Y7Mvpjyc-13">
          <mxGeometry y="52" width="160" height="8" as="geometry" />
        </mxCell>
        <mxCell id="8SmD6S5KUyV5Y7Mvpjyc-16" value="+toString(): String" style="text;align=left;verticalAlign=top;spacingLeft=4;spacingRight=4;overflow=hidden;rotatable=0;points=[[0,0.5],[1,0.5]];portConstraint=eastwest;fontStyle=0;fontColor=#1A1A1A;rounded=0;" vertex="1" parent="8SmD6S5KUyV5Y7Mvpjyc-13">
          <mxGeometry y="60" width="160" height="26" as="geometry" />
        </mxCell>
        <mxCell id="8SmD6S5KUyV5Y7Mvpjyc-17" value="" style="endArrow=none;html=1;rounded=0;entryX=0.5;entryY=1;entryDx=0;entryDy=0;labelBackgroundColor=#EEEEEE;strokeColor=#182E3E;fontColor=#1A1A1A;" edge="1" parent="WIyWlLk6GJQsqaUBKTNV-1" source="zkfFHV4jXpPFQw0GAbJ--6" target="8SmD6S5KUyV5Y7Mvpjyc-13">
          <mxGeometry width="50" height="50" relative="1" as="geometry">
            <mxPoint x="390" y="320" as="sourcePoint" />
            <mxPoint x="440" y="270" as="targetPoint" />
            <Array as="points" />
          </mxGeometry>
        </mxCell>
        <mxCell id="8SmD6S5KUyV5Y7Mvpjyc-19" value="models" style="shape=umlFrame;whiteSpace=wrap;html=1;rounded=0;sketch=0;fontColor=#1A1A1A;strokeColor=#909090;fillColor=#F5AB50;" vertex="1" parent="WIyWlLk6GJQsqaUBKTNV-1">
          <mxGeometry width="1000" height="560" as="geometry" />
        </mxCell>
        <mxCell id="8SmD6S5KUyV5Y7Mvpjyc-20" value="Login" style="swimlane;fontStyle=0;align=center;verticalAlign=top;childLayout=stackLayout;horizontal=1;startSize=26;horizontalStack=0;resizeParent=1;resizeLast=0;collapsible=1;marginBottom=0;rounded=0;shadow=0;strokeWidth=1;fillColor=#F5AB50;strokeColor=#909090;fontColor=#1A1A1A;" vertex="1" parent="WIyWlLk6GJQsqaUBKTNV-1">
          <mxGeometry x="800" y="40" width="160" height="90" as="geometry">
            <mxRectangle x="130" y="380" width="160" height="26" as="alternateBounds" />
          </mxGeometry>
        </mxCell>
        <mxCell id="8SmD6S5KUyV5Y7Mvpjyc-21" value="-usuario: String" style="text;align=left;verticalAlign=top;spacingLeft=4;spacingRight=4;overflow=hidden;rotatable=0;points=[[0,0.5],[1,0.5]];portConstraint=eastwest;fontColor=#1A1A1A;rounded=0;" vertex="1" parent="8SmD6S5KUyV5Y7Mvpjyc-20">
          <mxGeometry y="26" width="160" height="26" as="geometry" />
        </mxCell>
        <mxCell id="8SmD6S5KUyV5Y7Mvpjyc-22" value="" style="line;html=1;strokeWidth=1;align=left;verticalAlign=middle;spacingTop=-1;spacingLeft=3;spacingRight=3;rotatable=0;labelPosition=right;points=[];portConstraint=eastwest;labelBackgroundColor=#EEEEEE;fillColor=#F5AB50;strokeColor=#909090;fontColor=#1A1A1A;rounded=0;" vertex="1" parent="8SmD6S5KUyV5Y7Mvpjyc-20">
          <mxGeometry y="52" width="160" height="8" as="geometry" />
        </mxCell>
        <mxCell id="8SmD6S5KUyV5Y7Mvpjyc-23" value="+toString(): String" style="text;align=left;verticalAlign=top;spacingLeft=4;spacingRight=4;overflow=hidden;rotatable=0;points=[[0,0.5],[1,0.5]];portConstraint=eastwest;fontStyle=0;fontColor=#1A1A1A;rounded=0;" vertex="1" parent="8SmD6S5KUyV5Y7Mvpjyc-20">
          <mxGeometry y="60" width="160" height="26" as="geometry" />
        </mxCell>
        <mxCell id="8SmD6S5KUyV5Y7Mvpjyc-24" value="Playlist" style="swimlane;fontStyle=0;align=center;verticalAlign=top;childLayout=stackLayout;horizontal=1;startSize=26;horizontalStack=0;resizeParent=1;resizeLast=0;collapsible=1;marginBottom=0;rounded=0;shadow=0;strokeWidth=1;fillColor=#F5AB50;strokeColor=#909090;fontColor=#1A1A1A;" vertex="1" parent="WIyWlLk6GJQsqaUBKTNV-1">
          <mxGeometry x="795" y="280" width="170" height="152" as="geometry">
            <mxRectangle x="340" y="380" width="170" height="26" as="alternateBounds" />
          </mxGeometry>
        </mxCell>
        <mxCell id="8SmD6S5KUyV5Y7Mvpjyc-25" value="-nome: String" style="text;align=left;verticalAlign=top;spacingLeft=4;spacingRight=4;overflow=hidden;rotatable=0;points=[[0,0.5],[1,0.5]];portConstraint=eastwest;fontColor=#1A1A1A;rounded=0;" vertex="1" parent="8SmD6S5KUyV5Y7Mvpjyc-24">
          <mxGeometry y="26" width="170" height="26" as="geometry" />
        </mxCell>
        <mxCell id="8SmD6S5KUyV5Y7Mvpjyc-26" value="-login: Login" style="text;align=left;verticalAlign=top;spacingLeft=4;spacingRight=4;overflow=hidden;rotatable=0;points=[[0,0.5],[1,0.5]];portConstraint=eastwest;fontColor=#1A1A1A;rounded=0;" vertex="1" parent="8SmD6S5KUyV5Y7Mvpjyc-24">
          <mxGeometry y="52" width="170" height="28" as="geometry" />
        </mxCell>
        <mxCell id="8SmD6S5KUyV5Y7Mvpjyc-29" value="-musicas: ArrayList&lt;Musica&gt;" style="text;align=left;verticalAlign=top;spacingLeft=4;spacingRight=4;overflow=hidden;rotatable=0;points=[[0,0.5],[1,0.5]];portConstraint=eastwest;fontColor=#1A1A1A;rounded=0;" vertex="1" parent="8SmD6S5KUyV5Y7Mvpjyc-24">
          <mxGeometry y="80" width="170" height="26" as="geometry" />
        </mxCell>
        <mxCell id="8SmD6S5KUyV5Y7Mvpjyc-27" value="" style="line;html=1;strokeWidth=1;align=left;verticalAlign=middle;spacingTop=-1;spacingLeft=3;spacingRight=3;rotatable=0;labelPosition=right;points=[];portConstraint=eastwest;labelBackgroundColor=#EEEEEE;fillColor=#F5AB50;strokeColor=#909090;fontColor=#1A1A1A;rounded=0;" vertex="1" parent="8SmD6S5KUyV5Y7Mvpjyc-24">
          <mxGeometry y="106" width="170" height="10" as="geometry" />
        </mxCell>
        <mxCell id="8SmD6S5KUyV5Y7Mvpjyc-28" value="+toString(): String" style="text;align=left;verticalAlign=top;spacingLeft=4;spacingRight=4;overflow=hidden;rotatable=0;points=[[0,0.5],[1,0.5]];portConstraint=eastwest;rounded=0;shadow=0;html=0;fontColor=#1A1A1A;" vertex="1" parent="8SmD6S5KUyV5Y7Mvpjyc-24">
          <mxGeometry y="116" width="170" height="36" as="geometry" />
        </mxCell>
        <mxCell id="8SmD6S5KUyV5Y7Mvpjyc-30" value="" style="endArrow=none;html=1;rounded=0;sketch=0;fontColor=#1A1A1A;strokeColor=#182E3E;curved=0;entryX=0.5;entryY=1;entryDx=0;entryDy=0;exitX=0.5;exitY=0;exitDx=0;exitDy=0;" edge="1" parent="WIyWlLk6GJQsqaUBKTNV-1" source="8SmD6S5KUyV5Y7Mvpjyc-24" target="8SmD6S5KUyV5Y7Mvpjyc-20">
          <mxGeometry width="50" height="50" relative="1" as="geometry">
            <mxPoint x="430" y="320" as="sourcePoint" />
            <mxPoint x="480" y="270" as="targetPoint" />
            <Array as="points" />
          </mxGeometry>
        </mxCell>
        <mxCell id="8SmD6S5KUyV5Y7Mvpjyc-32" value="" style="endArrow=none;html=1;rounded=0;sketch=0;fontColor=#1A1A1A;strokeColor=#182E3E;curved=0;" edge="1" parent="WIyWlLk6GJQsqaUBKTNV-1">
          <mxGeometry width="50" height="50" relative="1" as="geometry">
            <mxPoint x="720" y="240" as="sourcePoint" />
            <mxPoint x="880" y="240" as="targetPoint" />
          </mxGeometry>
        </mxCell>
        <mxCell id="8SmD6S5KUyV5Y7Mvpjyc-33" value="Favoritos Podcasts" style="swimlane;fontStyle=0;align=center;verticalAlign=top;childLayout=stackLayout;horizontal=1;startSize=26;horizontalStack=0;resizeParent=1;resizeLast=0;collapsible=1;marginBottom=0;rounded=0;shadow=0;strokeWidth=1;fillColor=#F5AB50;strokeColor=#909090;fontColor=#1A1A1A;" vertex="1" parent="WIyWlLk6GJQsqaUBKTNV-1">
          <mxGeometry x="540" y="440" width="180" height="90" as="geometry">
            <mxRectangle x="130" y="380" width="160" height="26" as="alternateBounds" />
          </mxGeometry>
        </mxCell>
        <mxCell id="8SmD6S5KUyV5Y7Mvpjyc-34" value="- podcasts: ArrayList&lt;Podcast&gt;" style="text;align=left;verticalAlign=top;spacingLeft=4;spacingRight=4;overflow=hidden;rotatable=0;points=[[0,0.5],[1,0.5]];portConstraint=eastwest;fontColor=#1A1A1A;rounded=0;" vertex="1" parent="8SmD6S5KUyV5Y7Mvpjyc-33">
          <mxGeometry y="26" width="180" height="26" as="geometry" />
        </mxCell>
        <mxCell id="8SmD6S5KUyV5Y7Mvpjyc-35" value="" style="line;html=1;strokeWidth=1;align=left;verticalAlign=middle;spacingTop=-1;spacingLeft=3;spacingRight=3;rotatable=0;labelPosition=right;points=[];portConstraint=eastwest;labelBackgroundColor=#EEEEEE;fillColor=#F5AB50;strokeColor=#909090;fontColor=#1A1A1A;rounded=0;" vertex="1" parent="8SmD6S5KUyV5Y7Mvpjyc-33">
          <mxGeometry y="52" width="180" height="8" as="geometry" />
        </mxCell>
        <mxCell id="8SmD6S5KUyV5Y7Mvpjyc-36" value="+toString(): String" style="text;align=left;verticalAlign=top;spacingLeft=4;spacingRight=4;overflow=hidden;rotatable=0;points=[[0,0.5],[1,0.5]];portConstraint=eastwest;fontStyle=0;fontColor=#1A1A1A;rounded=0;" vertex="1" parent="8SmD6S5KUyV5Y7Mvpjyc-33">
          <mxGeometry y="60" width="180" height="26" as="geometry" />
        </mxCell>
        <mxCell id="8SmD6S5KUyV5Y7Mvpjyc-37" value="" style="endArrow=none;html=1;rounded=0;sketch=0;fontColor=#1A1A1A;strokeColor=#182E3E;curved=0;exitX=1.008;exitY=0.964;exitDx=0;exitDy=0;exitPerimeter=0;" edge="1" parent="WIyWlLk6GJQsqaUBKTNV-1" source="8SmD6S5KUyV5Y7Mvpjyc-9">
          <mxGeometry width="50" height="50" relative="1" as="geometry">
            <mxPoint x="430" y="320" as="sourcePoint" />
            <mxPoint x="640" y="360" as="targetPoint" />
          </mxGeometry>
        </mxCell>
        <mxCell id="8SmD6S5KUyV5Y7Mvpjyc-38" value="" style="endArrow=none;html=1;rounded=0;sketch=0;fontColor=#1A1A1A;strokeColor=#182E3E;curved=0;exitX=0.556;exitY=-0.02;exitDx=0;exitDy=0;exitPerimeter=0;" edge="1" parent="WIyWlLk6GJQsqaUBKTNV-1" source="8SmD6S5KUyV5Y7Mvpjyc-33">
          <mxGeometry width="50" height="50" relative="1" as="geometry">
            <mxPoint x="430" y="320" as="sourcePoint" />
            <mxPoint x="640" y="360" as="targetPoint" />
          </mxGeometry>
        </mxCell>
        <mxCell id="8SmD6S5KUyV5Y7Mvpjyc-39" value="Favoritos AudioBooks" style="swimlane;fontStyle=0;align=center;verticalAlign=top;childLayout=stackLayout;horizontal=1;startSize=26;horizontalStack=0;resizeParent=1;resizeLast=0;collapsible=1;marginBottom=0;rounded=0;shadow=0;strokeWidth=1;fillColor=#F5AB50;strokeColor=#909090;fontColor=#1A1A1A;" vertex="1" parent="WIyWlLk6GJQsqaUBKTNV-1">
          <mxGeometry x="30" y="450" width="210" height="90" as="geometry">
            <mxRectangle x="130" y="380" width="160" height="26" as="alternateBounds" />
          </mxGeometry>
        </mxCell>
        <mxCell id="8SmD6S5KUyV5Y7Mvpjyc-40" value="- audioBooks: ArrayList&lt;AudioBooks&gt;" style="text;align=left;verticalAlign=top;spacingLeft=4;spacingRight=4;overflow=hidden;rotatable=0;points=[[0,0.5],[1,0.5]];portConstraint=eastwest;fontColor=#1A1A1A;rounded=0;" vertex="1" parent="8SmD6S5KUyV5Y7Mvpjyc-39">
          <mxGeometry y="26" width="210" height="26" as="geometry" />
        </mxCell>
        <mxCell id="8SmD6S5KUyV5Y7Mvpjyc-41" value="" style="line;html=1;strokeWidth=1;align=left;verticalAlign=middle;spacingTop=-1;spacingLeft=3;spacingRight=3;rotatable=0;labelPosition=right;points=[];portConstraint=eastwest;labelBackgroundColor=#EEEEEE;fillColor=#F5AB50;strokeColor=#909090;fontColor=#1A1A1A;rounded=0;" vertex="1" parent="8SmD6S5KUyV5Y7Mvpjyc-39">
          <mxGeometry y="52" width="210" height="8" as="geometry" />
        </mxCell>
        <mxCell id="8SmD6S5KUyV5Y7Mvpjyc-42" value="+toString(): String" style="text;align=left;verticalAlign=top;spacingLeft=4;spacingRight=4;overflow=hidden;rotatable=0;points=[[0,0.5],[1,0.5]];portConstraint=eastwest;fontStyle=0;fontColor=#1A1A1A;rounded=0;" vertex="1" parent="8SmD6S5KUyV5Y7Mvpjyc-39">
          <mxGeometry y="60" width="210" height="26" as="geometry" />
        </mxCell>
        <mxCell id="8SmD6S5KUyV5Y7Mvpjyc-43" value="" style="endArrow=none;html=1;rounded=0;sketch=0;fontColor=#1A1A1A;strokeColor=#182E3E;curved=0;entryX=0.568;entryY=1.083;entryDx=0;entryDy=0;entryPerimeter=0;" edge="1" parent="WIyWlLk6GJQsqaUBKTNV-1" target="8SmD6S5KUyV5Y7Mvpjyc-6">
          <mxGeometry width="50" height="50" relative="1" as="geometry">
            <mxPoint x="121" y="450" as="sourcePoint" />
            <mxPoint x="480" y="270" as="targetPoint" />
          </mxGeometry>
        </mxCell>
      </root>
    </mxGraphModel>
  </diagram>
  <diagram id="8qN9UD7prnA3yNP1T3Pm" name="Controllers">
    <mxGraphModel dx="2456" dy="816" grid="1" gridSize="10" guides="1" tooltips="1" connect="1" arrows="1" fold="1" page="1" pageScale="1" pageWidth="827" pageHeight="1169" background="#EEEEEE" math="0" shadow="0">
      <root>
        <mxCell id="0" />
        <mxCell id="1" parent="0" />
        <mxCell id="u68_vq_sIVdHBZl2wMP9-1" value="ArtistaController" style="swimlane;fontStyle=0;align=center;verticalAlign=top;childLayout=stackLayout;horizontal=1;startSize=26;horizontalStack=0;resizeParent=1;resizeLast=0;collapsible=1;marginBottom=0;rounded=0;shadow=0;strokeWidth=1;fillColor=#F5AB50;strokeColor=#909090;fontColor=#1A1A1A;" vertex="1" parent="1">
          <mxGeometry x="390" y="30" width="170" height="164" as="geometry">
            <mxRectangle x="130" y="380" width="160" height="26" as="alternateBounds" />
          </mxGeometry>
        </mxCell>
        <mxCell id="u68_vq_sIVdHBZl2wMP9-2" value="-artistas: ArrayList&lt;Artista&gt;" style="text;align=left;verticalAlign=top;spacingLeft=4;spacingRight=4;overflow=hidden;rotatable=0;points=[[0,0.5],[1,0.5]];portConstraint=eastwest;fontColor=#1A1A1A;rounded=0;" vertex="1" parent="u68_vq_sIVdHBZl2wMP9-1">
          <mxGeometry y="26" width="170" height="26" as="geometry" />
        </mxCell>
        <mxCell id="u68_vq_sIVdHBZl2wMP9-3" value="" style="line;html=1;strokeWidth=1;align=left;verticalAlign=middle;spacingTop=-1;spacingLeft=3;spacingRight=3;rotatable=0;labelPosition=right;points=[];portConstraint=eastwest;fillColor=#F5AB50;strokeColor=#909090;fontColor=#1A1A1A;rounded=0;labelBackgroundColor=#EEEEEE;" vertex="1" parent="u68_vq_sIVdHBZl2wMP9-1">
          <mxGeometry y="52" width="170" height="8" as="geometry" />
        </mxCell>
        <mxCell id="u68_vq_sIVdHBZl2wMP9-4" value="+cadastrar(): void" style="text;align=left;verticalAlign=top;spacingLeft=4;spacingRight=4;overflow=hidden;rotatable=0;points=[[0,0.5],[1,0.5]];portConstraint=eastwest;fontStyle=0;fontColor=#1A1A1A;rounded=0;" vertex="1" parent="u68_vq_sIVdHBZl2wMP9-1">
          <mxGeometry y="60" width="170" height="26" as="geometry" />
        </mxCell>
        <mxCell id="gcMgUX-yMLSvwoJrhFj6-1" value="+listar(): ArrayList&lt;Artista&gt;" style="text;align=left;verticalAlign=top;spacingLeft=4;spacingRight=4;overflow=hidden;rotatable=0;points=[[0,0.5],[1,0.5]];portConstraint=eastwest;fontStyle=0;fontColor=#1A1A1A;rounded=0;" vertex="1" parent="u68_vq_sIVdHBZl2wMP9-1">
          <mxGeometry y="86" width="170" height="26" as="geometry" />
        </mxCell>
        <mxCell id="gcMgUX-yMLSvwoJrhFj6-3" value="+buscarPorNome(): Artista" style="text;align=left;verticalAlign=top;spacingLeft=4;spacingRight=4;overflow=hidden;rotatable=0;points=[[0,0.5],[1,0.5]];portConstraint=eastwest;fontStyle=0;fontColor=#1A1A1A;rounded=0;" vertex="1" parent="u68_vq_sIVdHBZl2wMP9-1">
          <mxGeometry y="112" width="170" height="26" as="geometry" />
        </mxCell>
        <mxCell id="gcMgUX-yMLSvwoJrhFj6-2" value="+remover(): Artista" style="text;align=left;verticalAlign=top;spacingLeft=4;spacingRight=4;overflow=hidden;rotatable=0;points=[[0,0.5],[1,0.5]];portConstraint=eastwest;fontStyle=0;fontColor=#1A1A1A;rounded=0;" vertex="1" parent="u68_vq_sIVdHBZl2wMP9-1">
          <mxGeometry y="138" width="170" height="26" as="geometry" />
        </mxCell>
        <mxCell id="gcMgUX-yMLSvwoJrhFj6-4" value="MusicaController" style="swimlane;fontStyle=0;align=center;verticalAlign=top;childLayout=stackLayout;horizontal=1;startSize=26;horizontalStack=0;resizeParent=1;resizeLast=0;collapsible=1;marginBottom=0;rounded=0;shadow=0;strokeWidth=1;fillColor=#F5AB50;strokeColor=#909090;fontColor=#1A1A1A;" vertex="1" parent="1">
          <mxGeometry x="120" y="30" width="170" height="164" as="geometry">
            <mxRectangle x="130" y="380" width="160" height="26" as="alternateBounds" />
          </mxGeometry>
        </mxCell>
        <mxCell id="gcMgUX-yMLSvwoJrhFj6-5" value="-musicas: ArrayList&lt;Musica&gt;" style="text;align=left;verticalAlign=top;spacingLeft=4;spacingRight=4;overflow=hidden;rotatable=0;points=[[0,0.5],[1,0.5]];portConstraint=eastwest;fontColor=#1A1A1A;rounded=0;" vertex="1" parent="gcMgUX-yMLSvwoJrhFj6-4">
          <mxGeometry y="26" width="170" height="26" as="geometry" />
        </mxCell>
        <mxCell id="gcMgUX-yMLSvwoJrhFj6-6" value="" style="line;html=1;strokeWidth=1;align=left;verticalAlign=middle;spacingTop=-1;spacingLeft=3;spacingRight=3;rotatable=0;labelPosition=right;points=[];portConstraint=eastwest;fillColor=#F5AB50;strokeColor=#909090;fontColor=#1A1A1A;rounded=0;labelBackgroundColor=#EEEEEE;" vertex="1" parent="gcMgUX-yMLSvwoJrhFj6-4">
          <mxGeometry y="52" width="170" height="8" as="geometry" />
        </mxCell>
        <mxCell id="gcMgUX-yMLSvwoJrhFj6-7" value="+cadastrar(): void" style="text;align=left;verticalAlign=top;spacingLeft=4;spacingRight=4;overflow=hidden;rotatable=0;points=[[0,0.5],[1,0.5]];portConstraint=eastwest;fontStyle=0;fontColor=#1A1A1A;rounded=0;" vertex="1" parent="gcMgUX-yMLSvwoJrhFj6-4">
          <mxGeometry y="60" width="170" height="26" as="geometry" />
        </mxCell>
        <mxCell id="gcMgUX-yMLSvwoJrhFj6-8" value="+listar(): ArrayList&lt;Musica&gt;" style="text;align=left;verticalAlign=top;spacingLeft=4;spacingRight=4;overflow=hidden;rotatable=0;points=[[0,0.5],[1,0.5]];portConstraint=eastwest;fontStyle=0;fontColor=#1A1A1A;rounded=0;" vertex="1" parent="gcMgUX-yMLSvwoJrhFj6-4">
          <mxGeometry y="86" width="170" height="26" as="geometry" />
        </mxCell>
        <mxCell id="gcMgUX-yMLSvwoJrhFj6-9" value="+buscarPorNome(): Musica" style="text;align=left;verticalAlign=top;spacingLeft=4;spacingRight=4;overflow=hidden;rotatable=0;points=[[0,0.5],[1,0.5]];portConstraint=eastwest;fontStyle=0;fontColor=#1A1A1A;rounded=0;" vertex="1" parent="gcMgUX-yMLSvwoJrhFj6-4">
          <mxGeometry y="112" width="170" height="26" as="geometry" />
        </mxCell>
        <mxCell id="gcMgUX-yMLSvwoJrhFj6-10" value="+remover(): Musica" style="text;align=left;verticalAlign=top;spacingLeft=4;spacingRight=4;overflow=hidden;rotatable=0;points=[[0,0.5],[1,0.5]];portConstraint=eastwest;fontStyle=0;fontColor=#1A1A1A;rounded=0;" vertex="1" parent="gcMgUX-yMLSvwoJrhFj6-4">
          <mxGeometry y="138" width="170" height="26" as="geometry" />
        </mxCell>
        <mxCell id="gcMgUX-yMLSvwoJrhFj6-11" value="AudioBookController" style="swimlane;fontStyle=0;align=center;verticalAlign=top;childLayout=stackLayout;horizontal=1;startSize=26;horizontalStack=0;resizeParent=1;resizeLast=0;collapsible=1;marginBottom=0;rounded=0;shadow=0;strokeWidth=1;fillColor=#F5AB50;strokeColor=#909090;fontColor=#1A1A1A;" vertex="1" parent="1">
          <mxGeometry x="430" y="503" width="180" height="170" as="geometry">
            <mxRectangle x="130" y="380" width="160" height="26" as="alternateBounds" />
          </mxGeometry>
        </mxCell>
        <mxCell id="gcMgUX-yMLSvwoJrhFj6-12" value="-aBook: ArrayList&lt;AudioBook&gt;" style="text;align=left;verticalAlign=top;spacingLeft=4;spacingRight=4;overflow=hidden;rotatable=0;points=[[0,0.5],[1,0.5]];portConstraint=eastwest;fontColor=#1A1A1A;rounded=0;" vertex="1" parent="gcMgUX-yMLSvwoJrhFj6-11">
          <mxGeometry y="26" width="180" height="26" as="geometry" />
        </mxCell>
        <mxCell id="gcMgUX-yMLSvwoJrhFj6-13" value="" style="line;html=1;strokeWidth=1;align=left;verticalAlign=middle;spacingTop=-1;spacingLeft=3;spacingRight=3;rotatable=0;labelPosition=right;points=[];portConstraint=eastwest;fillColor=#F5AB50;strokeColor=#909090;fontColor=#1A1A1A;rounded=0;labelBackgroundColor=#EEEEEE;" vertex="1" parent="gcMgUX-yMLSvwoJrhFj6-11">
          <mxGeometry y="52" width="180" height="8" as="geometry" />
        </mxCell>
        <mxCell id="gcMgUX-yMLSvwoJrhFj6-14" value="+cadastrar(): void" style="text;align=left;verticalAlign=top;spacingLeft=4;spacingRight=4;overflow=hidden;rotatable=0;points=[[0,0.5],[1,0.5]];portConstraint=eastwest;fontStyle=0;fontColor=#1A1A1A;rounded=0;" vertex="1" parent="gcMgUX-yMLSvwoJrhFj6-11">
          <mxGeometry y="60" width="180" height="26" as="geometry" />
        </mxCell>
        <mxCell id="gcMgUX-yMLSvwoJrhFj6-15" value="+listar(): ArrayList&lt;AudioBook&gt;" style="text;align=left;verticalAlign=top;spacingLeft=4;spacingRight=4;overflow=hidden;rotatable=0;points=[[0,0.5],[1,0.5]];portConstraint=eastwest;fontStyle=0;fontColor=#1A1A1A;rounded=0;" vertex="1" parent="gcMgUX-yMLSvwoJrhFj6-11">
          <mxGeometry y="86" width="180" height="26" as="geometry" />
        </mxCell>
        <mxCell id="gcMgUX-yMLSvwoJrhFj6-16" value="+buscarPorNome(): AudioBook" style="text;align=left;verticalAlign=top;spacingLeft=4;spacingRight=4;overflow=hidden;rotatable=0;points=[[0,0.5],[1,0.5]];portConstraint=eastwest;fontStyle=0;fontColor=#1A1A1A;rounded=0;" vertex="1" parent="gcMgUX-yMLSvwoJrhFj6-11">
          <mxGeometry y="112" width="180" height="26" as="geometry" />
        </mxCell>
        <mxCell id="gcMgUX-yMLSvwoJrhFj6-17" value="+remover(): AudioBook" style="text;align=left;verticalAlign=top;spacingLeft=4;spacingRight=4;overflow=hidden;rotatable=0;points=[[0,0.5],[1,0.5]];portConstraint=eastwest;fontStyle=0;fontColor=#1A1A1A;rounded=0;" vertex="1" parent="gcMgUX-yMLSvwoJrhFj6-11">
          <mxGeometry y="138" width="180" height="26" as="geometry" />
        </mxCell>
        <mxCell id="gcMgUX-yMLSvwoJrhFj6-18" value="LoginController" style="swimlane;fontStyle=0;align=center;verticalAlign=top;childLayout=stackLayout;horizontal=1;startSize=26;horizontalStack=0;resizeParent=1;resizeLast=0;collapsible=1;marginBottom=0;rounded=0;shadow=0;strokeWidth=1;fillColor=#F5AB50;strokeColor=#909090;fontColor=#1A1A1A;" vertex="1" parent="1">
          <mxGeometry x="220" y="270" width="160" height="164" as="geometry">
            <mxRectangle x="130" y="380" width="160" height="26" as="alternateBounds" />
          </mxGeometry>
        </mxCell>
        <mxCell id="gcMgUX-yMLSvwoJrhFj6-19" value="-logins: ArrayList&lt;Login&gt;" style="text;align=left;verticalAlign=top;spacingLeft=4;spacingRight=4;overflow=hidden;rotatable=0;points=[[0,0.5],[1,0.5]];portConstraint=eastwest;fontColor=#1A1A1A;rounded=0;" vertex="1" parent="gcMgUX-yMLSvwoJrhFj6-18">
          <mxGeometry y="26" width="160" height="26" as="geometry" />
        </mxCell>
        <mxCell id="gcMgUX-yMLSvwoJrhFj6-20" value="" style="line;html=1;strokeWidth=1;align=left;verticalAlign=middle;spacingTop=-1;spacingLeft=3;spacingRight=3;rotatable=0;labelPosition=right;points=[];portConstraint=eastwest;fillColor=#F5AB50;strokeColor=#909090;fontColor=#1A1A1A;rounded=0;labelBackgroundColor=#EEEEEE;" vertex="1" parent="gcMgUX-yMLSvwoJrhFj6-18">
          <mxGeometry y="52" width="160" height="8" as="geometry" />
        </mxCell>
        <mxCell id="gcMgUX-yMLSvwoJrhFj6-21" value="+cadastro(): void" style="text;align=left;verticalAlign=top;spacingLeft=4;spacingRight=4;overflow=hidden;rotatable=0;points=[[0,0.5],[1,0.5]];portConstraint=eastwest;fontStyle=0;fontColor=#1A1A1A;rounded=0;" vertex="1" parent="gcMgUX-yMLSvwoJrhFj6-18">
          <mxGeometry y="60" width="160" height="26" as="geometry" />
        </mxCell>
        <mxCell id="gcMgUX-yMLSvwoJrhFj6-22" value="+listar(): ArrayList&lt;Login&gt;" style="text;align=left;verticalAlign=top;spacingLeft=4;spacingRight=4;overflow=hidden;rotatable=0;points=[[0,0.5],[1,0.5]];portConstraint=eastwest;fontStyle=0;fontColor=#1A1A1A;rounded=0;" vertex="1" parent="gcMgUX-yMLSvwoJrhFj6-18">
          <mxGeometry y="86" width="160" height="26" as="geometry" />
        </mxCell>
        <mxCell id="gcMgUX-yMLSvwoJrhFj6-23" value="+buscar(): Login" style="text;align=left;verticalAlign=top;spacingLeft=4;spacingRight=4;overflow=hidden;rotatable=0;points=[[0,0.5],[1,0.5]];portConstraint=eastwest;fontStyle=0;fontColor=#1A1A1A;rounded=0;" vertex="1" parent="gcMgUX-yMLSvwoJrhFj6-18">
          <mxGeometry y="112" width="160" height="26" as="geometry" />
        </mxCell>
        <mxCell id="gcMgUX-yMLSvwoJrhFj6-24" value="+excluirLogin(): Login" style="text;align=left;verticalAlign=top;spacingLeft=4;spacingRight=4;overflow=hidden;rotatable=0;points=[[0,0.5],[1,0.5]];portConstraint=eastwest;fontStyle=0;fontColor=#1A1A1A;rounded=0;" vertex="1" parent="gcMgUX-yMLSvwoJrhFj6-18">
          <mxGeometry y="138" width="160" height="26" as="geometry" />
        </mxCell>
        <mxCell id="gcMgUX-yMLSvwoJrhFj6-25" value="PlaylistController" style="swimlane;fontStyle=0;align=center;verticalAlign=top;childLayout=stackLayout;horizontal=1;startSize=26;horizontalStack=0;resizeParent=1;resizeLast=0;collapsible=1;marginBottom=0;rounded=0;shadow=0;strokeWidth=1;fillColor=#F5AB50;strokeColor=#909090;fontColor=#1A1A1A;" vertex="1" parent="1">
          <mxGeometry x="-120" y="194" width="170" height="164" as="geometry">
            <mxRectangle x="130" y="380" width="160" height="26" as="alternateBounds" />
          </mxGeometry>
        </mxCell>
        <mxCell id="gcMgUX-yMLSvwoJrhFj6-26" value="-playlists: ArrayList&lt;Playlist&gt;" style="text;align=left;verticalAlign=top;spacingLeft=4;spacingRight=4;overflow=hidden;rotatable=0;points=[[0,0.5],[1,0.5]];portConstraint=eastwest;fontColor=#1A1A1A;rounded=0;" vertex="1" parent="gcMgUX-yMLSvwoJrhFj6-25">
          <mxGeometry y="26" width="170" height="26" as="geometry" />
        </mxCell>
        <mxCell id="gcMgUX-yMLSvwoJrhFj6-27" value="" style="line;html=1;strokeWidth=1;align=left;verticalAlign=middle;spacingTop=-1;spacingLeft=3;spacingRight=3;rotatable=0;labelPosition=right;points=[];portConstraint=eastwest;fillColor=#F5AB50;strokeColor=#909090;fontColor=#1A1A1A;rounded=0;labelBackgroundColor=#EEEEEE;" vertex="1" parent="gcMgUX-yMLSvwoJrhFj6-25">
          <mxGeometry y="52" width="170" height="8" as="geometry" />
        </mxCell>
        <mxCell id="gcMgUX-yMLSvwoJrhFj6-28" value="+cadastrar(): void" style="text;align=left;verticalAlign=top;spacingLeft=4;spacingRight=4;overflow=hidden;rotatable=0;points=[[0,0.5],[1,0.5]];portConstraint=eastwest;fontStyle=0;fontColor=#1A1A1A;rounded=0;" vertex="1" parent="gcMgUX-yMLSvwoJrhFj6-25">
          <mxGeometry y="60" width="170" height="26" as="geometry" />
        </mxCell>
        <mxCell id="gcMgUX-yMLSvwoJrhFj6-29" value="+listar(): ArrayList&lt;Playlist&gt;" style="text;align=left;verticalAlign=top;spacingLeft=4;spacingRight=4;overflow=hidden;rotatable=0;points=[[0,0.5],[1,0.5]];portConstraint=eastwest;fontStyle=0;fontColor=#1A1A1A;rounded=0;" vertex="1" parent="gcMgUX-yMLSvwoJrhFj6-25">
          <mxGeometry y="86" width="170" height="26" as="geometry" />
        </mxCell>
        <mxCell id="gcMgUX-yMLSvwoJrhFj6-30" value="+buscarPlaylist(): Playlist" style="text;align=left;verticalAlign=top;spacingLeft=4;spacingRight=4;overflow=hidden;rotatable=0;points=[[0,0.5],[1,0.5]];portConstraint=eastwest;fontStyle=0;fontColor=#1A1A1A;rounded=0;" vertex="1" parent="gcMgUX-yMLSvwoJrhFj6-25">
          <mxGeometry y="112" width="170" height="26" as="geometry" />
        </mxCell>
        <mxCell id="gcMgUX-yMLSvwoJrhFj6-31" value="+remover(): Playlist" style="text;align=left;verticalAlign=top;spacingLeft=4;spacingRight=4;overflow=hidden;rotatable=0;points=[[0,0.5],[1,0.5]];portConstraint=eastwest;fontStyle=0;fontColor=#1A1A1A;rounded=0;" vertex="1" parent="gcMgUX-yMLSvwoJrhFj6-25">
          <mxGeometry y="138" width="170" height="26" as="geometry" />
        </mxCell>
        <mxCell id="gcMgUX-yMLSvwoJrhFj6-32" value="PodcastController" style="swimlane;fontStyle=0;align=center;verticalAlign=top;childLayout=stackLayout;horizontal=1;startSize=26;horizontalStack=0;resizeParent=1;resizeLast=0;collapsible=1;marginBottom=0;rounded=0;shadow=0;strokeWidth=1;fillColor=#F5AB50;strokeColor=#909090;fontColor=#1A1A1A;" vertex="1" parent="1">
          <mxGeometry x="630" y="40" width="170" height="170" as="geometry">
            <mxRectangle x="130" y="380" width="160" height="26" as="alternateBounds" />
          </mxGeometry>
        </mxCell>
        <mxCell id="gcMgUX-yMLSvwoJrhFj6-33" value="-podcasts: ArrayList&lt;Podcast&gt;" style="text;align=left;verticalAlign=top;spacingLeft=4;spacingRight=4;overflow=hidden;rotatable=0;points=[[0,0.5],[1,0.5]];portConstraint=eastwest;fontColor=#1A1A1A;rounded=0;" vertex="1" parent="gcMgUX-yMLSvwoJrhFj6-32">
          <mxGeometry y="26" width="170" height="26" as="geometry" />
        </mxCell>
        <mxCell id="gcMgUX-yMLSvwoJrhFj6-34" value="" style="line;html=1;strokeWidth=1;align=left;verticalAlign=middle;spacingTop=-1;spacingLeft=3;spacingRight=3;rotatable=0;labelPosition=right;points=[];portConstraint=eastwest;fillColor=#F5AB50;strokeColor=#909090;fontColor=#1A1A1A;rounded=0;labelBackgroundColor=#EEEEEE;" vertex="1" parent="gcMgUX-yMLSvwoJrhFj6-32">
          <mxGeometry y="52" width="170" height="8" as="geometry" />
        </mxCell>
        <mxCell id="gcMgUX-yMLSvwoJrhFj6-35" value="+cadastrar(): void" style="text;align=left;verticalAlign=top;spacingLeft=4;spacingRight=4;overflow=hidden;rotatable=0;points=[[0,0.5],[1,0.5]];portConstraint=eastwest;fontStyle=0;fontColor=#1A1A1A;rounded=0;" vertex="1" parent="gcMgUX-yMLSvwoJrhFj6-32">
          <mxGeometry y="60" width="170" height="26" as="geometry" />
        </mxCell>
        <mxCell id="gcMgUX-yMLSvwoJrhFj6-36" value="+listar(): ArrayList&lt;Podcast&gt;" style="text;align=left;verticalAlign=top;spacingLeft=4;spacingRight=4;overflow=hidden;rotatable=0;points=[[0,0.5],[1,0.5]];portConstraint=eastwest;fontStyle=0;fontColor=#1A1A1A;rounded=0;" vertex="1" parent="gcMgUX-yMLSvwoJrhFj6-32">
          <mxGeometry y="86" width="170" height="26" as="geometry" />
        </mxCell>
        <mxCell id="gcMgUX-yMLSvwoJrhFj6-37" value="+buscarPorNome(): Podcast" style="text;align=left;verticalAlign=top;spacingLeft=4;spacingRight=4;overflow=hidden;rotatable=0;points=[[0,0.5],[1,0.5]];portConstraint=eastwest;fontStyle=0;fontColor=#1A1A1A;rounded=0;" vertex="1" parent="gcMgUX-yMLSvwoJrhFj6-32">
          <mxGeometry y="112" width="170" height="26" as="geometry" />
        </mxCell>
        <mxCell id="gcMgUX-yMLSvwoJrhFj6-38" value="+remover(): Podcast" style="text;align=left;verticalAlign=top;spacingLeft=4;spacingRight=4;overflow=hidden;rotatable=0;points=[[0,0.5],[1,0.5]];portConstraint=eastwest;fontStyle=0;fontColor=#1A1A1A;rounded=0;" vertex="1" parent="gcMgUX-yMLSvwoJrhFj6-32">
          <mxGeometry y="138" width="170" height="26" as="geometry" />
        </mxCell>
        <mxCell id="gcMgUX-yMLSvwoJrhFj6-53" value="FavoritosPodcastController" style="swimlane;fontStyle=0;align=center;verticalAlign=top;childLayout=stackLayout;horizontal=1;startSize=26;horizontalStack=0;resizeParent=1;resizeLast=0;collapsible=1;marginBottom=0;rounded=0;shadow=0;strokeWidth=1;fillColor=#F5AB50;strokeColor=#909090;fontColor=#1A1A1A;" vertex="1" parent="1">
          <mxGeometry x="510" y="300" width="270" height="164" as="geometry">
            <mxRectangle x="130" y="380" width="160" height="26" as="alternateBounds" />
          </mxGeometry>
        </mxCell>
        <mxCell id="gcMgUX-yMLSvwoJrhFj6-54" value="-favoritosPodcast: ArrayList&lt;FavoritosPodcast&gt;" style="text;align=left;verticalAlign=top;spacingLeft=4;spacingRight=4;overflow=hidden;rotatable=0;points=[[0,0.5],[1,0.5]];portConstraint=eastwest;fontColor=#1A1A1A;rounded=0;" vertex="1" parent="gcMgUX-yMLSvwoJrhFj6-53">
          <mxGeometry y="26" width="270" height="26" as="geometry" />
        </mxCell>
        <mxCell id="gcMgUX-yMLSvwoJrhFj6-55" value="" style="line;html=1;strokeWidth=1;align=left;verticalAlign=middle;spacingTop=-1;spacingLeft=3;spacingRight=3;rotatable=0;labelPosition=right;points=[];portConstraint=eastwest;fillColor=#F5AB50;strokeColor=#909090;fontColor=#1A1A1A;rounded=0;labelBackgroundColor=#EEEEEE;" vertex="1" parent="gcMgUX-yMLSvwoJrhFj6-53">
          <mxGeometry y="52" width="270" height="8" as="geometry" />
        </mxCell>
        <mxCell id="gcMgUX-yMLSvwoJrhFj6-56" value="+cadastrar(): void" style="text;align=left;verticalAlign=top;spacingLeft=4;spacingRight=4;overflow=hidden;rotatable=0;points=[[0,0.5],[1,0.5]];portConstraint=eastwest;fontStyle=0;fontColor=#1A1A1A;rounded=0;" vertex="1" parent="gcMgUX-yMLSvwoJrhFj6-53">
          <mxGeometry y="60" width="270" height="26" as="geometry" />
        </mxCell>
        <mxCell id="gcMgUX-yMLSvwoJrhFj6-57" value="+listar(): ArrayList&lt;FavoritosPodcast&gt;" style="text;align=left;verticalAlign=top;spacingLeft=4;spacingRight=4;overflow=hidden;rotatable=0;points=[[0,0.5],[1,0.5]];portConstraint=eastwest;fontStyle=0;fontColor=#1A1A1A;rounded=0;" vertex="1" parent="gcMgUX-yMLSvwoJrhFj6-53">
          <mxGeometry y="86" width="270" height="26" as="geometry" />
        </mxCell>
        <mxCell id="gcMgUX-yMLSvwoJrhFj6-58" value="+buscarFavoritosPodcast(): FavoritosPodcast" style="text;align=left;verticalAlign=top;spacingLeft=4;spacingRight=4;overflow=hidden;rotatable=0;points=[[0,0.5],[1,0.5]];portConstraint=eastwest;fontStyle=0;fontColor=#1A1A1A;rounded=0;" vertex="1" parent="gcMgUX-yMLSvwoJrhFj6-53">
          <mxGeometry y="112" width="270" height="26" as="geometry" />
        </mxCell>
        <mxCell id="gcMgUX-yMLSvwoJrhFj6-59" value="+remover(): FavoritosPodcast" style="text;align=left;verticalAlign=top;spacingLeft=4;spacingRight=4;overflow=hidden;rotatable=0;points=[[0,0.5],[1,0.5]];portConstraint=eastwest;fontStyle=0;fontColor=#1A1A1A;rounded=0;" vertex="1" parent="gcMgUX-yMLSvwoJrhFj6-53">
          <mxGeometry y="138" width="270" height="26" as="geometry" />
        </mxCell>
        <mxCell id="gcMgUX-yMLSvwoJrhFj6-60" value="FavoritosAudioBookController" style="swimlane;fontStyle=0;align=center;verticalAlign=top;childLayout=stackLayout;horizontal=1;startSize=26;horizontalStack=0;resizeParent=1;resizeLast=0;collapsible=1;marginBottom=0;rounded=0;shadow=0;strokeWidth=1;fillColor=#F5AB50;strokeColor=#909090;fontColor=#1A1A1A;" vertex="1" parent="1">
          <mxGeometry x="-110" y="503" width="290" height="164" as="geometry">
            <mxRectangle x="130" y="380" width="160" height="26" as="alternateBounds" />
          </mxGeometry>
        </mxCell>
        <mxCell id="gcMgUX-yMLSvwoJrhFj6-61" value="-favoritosAudioBooks: ArrayList&lt;FavoritosAudioBook&gt;" style="text;align=left;verticalAlign=top;spacingLeft=4;spacingRight=4;overflow=hidden;rotatable=0;points=[[0,0.5],[1,0.5]];portConstraint=eastwest;fontColor=#1A1A1A;rounded=0;" vertex="1" parent="gcMgUX-yMLSvwoJrhFj6-60">
          <mxGeometry y="26" width="290" height="26" as="geometry" />
        </mxCell>
        <mxCell id="gcMgUX-yMLSvwoJrhFj6-62" value="" style="line;html=1;strokeWidth=1;align=left;verticalAlign=middle;spacingTop=-1;spacingLeft=3;spacingRight=3;rotatable=0;labelPosition=right;points=[];portConstraint=eastwest;fillColor=#F5AB50;strokeColor=#909090;fontColor=#1A1A1A;rounded=0;labelBackgroundColor=#EEEEEE;" vertex="1" parent="gcMgUX-yMLSvwoJrhFj6-60">
          <mxGeometry y="52" width="290" height="8" as="geometry" />
        </mxCell>
        <mxCell id="gcMgUX-yMLSvwoJrhFj6-63" value="+cadastrar(): void" style="text;align=left;verticalAlign=top;spacingLeft=4;spacingRight=4;overflow=hidden;rotatable=0;points=[[0,0.5],[1,0.5]];portConstraint=eastwest;fontStyle=0;fontColor=#1A1A1A;rounded=0;" vertex="1" parent="gcMgUX-yMLSvwoJrhFj6-60">
          <mxGeometry y="60" width="290" height="26" as="geometry" />
        </mxCell>
        <mxCell id="gcMgUX-yMLSvwoJrhFj6-64" value="+listar(): ArrayList&lt;FavoritosAudioBook&gt;" style="text;align=left;verticalAlign=top;spacingLeft=4;spacingRight=4;overflow=hidden;rotatable=0;points=[[0,0.5],[1,0.5]];portConstraint=eastwest;fontStyle=0;fontColor=#1A1A1A;rounded=0;" vertex="1" parent="gcMgUX-yMLSvwoJrhFj6-60">
          <mxGeometry y="86" width="290" height="26" as="geometry" />
        </mxCell>
        <mxCell id="gcMgUX-yMLSvwoJrhFj6-65" value="+buscarFavoritosAudioBook(): FavoritosAudioBook" style="text;align=left;verticalAlign=top;spacingLeft=4;spacingRight=4;overflow=hidden;rotatable=0;points=[[0,0.5],[1,0.5]];portConstraint=eastwest;fontStyle=0;fontColor=#1A1A1A;rounded=0;" vertex="1" parent="gcMgUX-yMLSvwoJrhFj6-60">
          <mxGeometry y="112" width="290" height="26" as="geometry" />
        </mxCell>
        <mxCell id="gcMgUX-yMLSvwoJrhFj6-66" value="+remover(): FavoritosAudioBook" style="text;align=left;verticalAlign=top;spacingLeft=4;spacingRight=4;overflow=hidden;rotatable=0;points=[[0,0.5],[1,0.5]];portConstraint=eastwest;fontStyle=0;fontColor=#1A1A1A;rounded=0;" vertex="1" parent="gcMgUX-yMLSvwoJrhFj6-60">
          <mxGeometry y="138" width="290" height="26" as="geometry" />
        </mxCell>
        <mxCell id="nQzd_ochWME34Q0F6kri-1" value="" style="endArrow=none;html=1;sketch=0;fontColor=#1A1A1A;strokeColor=#182E3E;curved=0;exitX=1;exitY=0.823;exitDx=0;exitDy=0;exitPerimeter=0;entryX=-0.007;entryY=0.836;entryDx=0;entryDy=0;entryPerimeter=0;" edge="1" parent="1" source="gcMgUX-yMLSvwoJrhFj6-7" target="u68_vq_sIVdHBZl2wMP9-4">
          <mxGeometry width="50" height="50" relative="1" as="geometry">
            <mxPoint x="400" y="270" as="sourcePoint" />
            <mxPoint x="320" y="121" as="targetPoint" />
          </mxGeometry>
        </mxCell>
        <mxCell id="nQzd_ochWME34Q0F6kri-2" value="" style="endArrow=none;html=1;sketch=0;fontColor=#1A1A1A;strokeColor=#182E3E;curved=0;" edge="1" parent="1">
          <mxGeometry width="50" height="50" relative="1" as="geometry">
            <mxPoint x="-40" y="120" as="sourcePoint" />
            <mxPoint x="120" y="120" as="targetPoint" />
            <Array as="points">
              <mxPoint x="50" y="120" />
            </Array>
          </mxGeometry>
        </mxCell>
        <mxCell id="nQzd_ochWME34Q0F6kri-3" value="" style="endArrow=none;html=1;sketch=0;fontColor=#1A1A1A;strokeColor=#182E3E;curved=0;exitX=-0.005;exitY=0.892;exitDx=0;exitDy=0;exitPerimeter=0;entryX=1;entryY=0.5;entryDx=0;entryDy=0;" edge="1" parent="1" source="gcMgUX-yMLSvwoJrhFj6-19" target="gcMgUX-yMLSvwoJrhFj6-30">
          <mxGeometry width="50" height="50" relative="1" as="geometry">
            <mxPoint x="320" y="360" as="sourcePoint" />
            <mxPoint x="50" y="319" as="targetPoint" />
          </mxGeometry>
        </mxCell>
        <mxCell id="nQzd_ochWME34Q0F6kri-5" value="" style="endArrow=none;html=1;sketch=0;fontColor=#1A1A1A;strokeColor=#182E3E;curved=0;entryX=0;entryY=0.269;entryDx=0;entryDy=0;entryPerimeter=0;" edge="1" parent="1" target="gcMgUX-yMLSvwoJrhFj6-15">
          <mxGeometry width="50" height="50" relative="1" as="geometry">
            <mxPoint x="180" y="596" as="sourcePoint" />
            <mxPoint x="404.5" y="580" as="targetPoint" />
          </mxGeometry>
        </mxCell>
        <mxCell id="nQzd_ochWME34Q0F6kri-6" value="" style="endArrow=none;html=1;sketch=0;fontColor=#1A1A1A;strokeColor=#182E3E;curved=0;entryX=0.779;entryY=-0.006;entryDx=0;entryDy=0;entryPerimeter=0;" edge="1" parent="1" target="gcMgUX-yMLSvwoJrhFj6-53">
          <mxGeometry width="50" height="50" relative="1" as="geometry">
            <mxPoint x="720" y="210" as="sourcePoint" />
            <mxPoint x="450" y="420" as="targetPoint" />
          </mxGeometry>
        </mxCell>
        <mxCell id="nQzd_ochWME34Q0F6kri-7" value="controllers" style="shape=umlFrame;whiteSpace=wrap;html=1;sketch=0;fontColor=#1A1A1A;strokeColor=#909090;fillColor=#F5AB50;width=70;height=30;" vertex="1" parent="1">
          <mxGeometry x="-160" width="1000" height="720" as="geometry" />
        </mxCell>
        <mxCell id="9xCtQVYM4Eugu64rLC8Y-1" value="" style="endArrow=none;html=1;sketch=0;fontColor=#1A1A1A;strokeColor=#182E3E;curved=0;exitX=0.468;exitY=0.003;exitDx=0;exitDy=0;exitPerimeter=0;" edge="1" parent="1" source="gcMgUX-yMLSvwoJrhFj6-25">
          <mxGeometry width="50" height="50" relative="1" as="geometry">
            <mxPoint x="400" y="270" as="sourcePoint" />
            <mxPoint x="-40" y="120" as="targetPoint" />
          </mxGeometry>
        </mxCell>
      </root>
    </mxGraphModel>
  </diagram>
</mxfile>
